HIERARCHY
ROOT hip
{
  OFFSET 5.51535 103.731 -2.80141
  CHANNELS 6 Xposition Yposition Zposition Zrotation Xrotation Yrotation
  JOINT abdomen
  {
    OFFSET 0 -1.186 -1.5018
    CHANNELS 6 Xposition Yposition Zposition Zrotation Xrotation Yrotation
    JOINT abdomen2
    {
      OFFSET 0 9.964 0.2134
      CHANNELS 6 Xposition Yposition Zposition Zrotation Xrotation Yrotation
      JOINT chest
      {
        OFFSET 0 13.134 -3.2573
        CHANNELS 6 Xposition Yposition Zposition Zrotation Xrotation Yrotation
        JOINT neck
        {
          OFFSET 0 20.686 -1.6905
          CHANNELS 6 Xposition Yposition Zposition Zrotation Xrotation Yrotation
          JOINT head
          {
            OFFSET 0 7.23801 -0.1237
            CHANNELS 6 Xposition Yposition Zposition Zrotation Xrotation Yrotation
            End Site
            {
              OFFSET 0 0 0
            }
          }
        }
        JOINT lCollar
        {
          OFFSET 1.7069 20.075 5.0056
          CHANNELS 6 Xposition Yposition Zposition Zrotation Xrotation Yrotation
          JOINT lShldr
          {
            OFFSET 13.6458 -0.0470195 -4.849
            CHANNELS 6 Xposition Yposition Zposition Zrotation Xrotation Yrotation
            JOINT lForeArm
            {
              OFFSET 28.3255 -0.97589 2.2888
              CHANNELS 6 Xposition Yposition Zposition Zrotation Xrotation Yrotation
              JOINT lHand
              {
                OFFSET 22.1583 -0.529998 10.8316
                CHANNELS 6 Xposition Yposition Zposition Zrotation Xrotation Yrotation
                JOINT lThumb1
                {
                  OFFSET 0.786 0.111997 2.5817
                  CHANNELS 6 Xposition Yposition Zposition Zrotation Xrotation Yrotation
                  JOINT lThumb2
                  {
                    OFFSET 0.360097 -0.877999 4.2331
                    CHANNELS 6 Xposition Yposition Zposition Zrotation Xrotation Yrotation
                    JOINT lThumb2_End
                    {
                      OFFSET 1.8127 -1.21601 2.2227
                      CHANNELS 6 Xposition Yposition Zposition Zrotation Xrotation Yrotation
                      End Site
                      {
                        OFFSET 0.0180981 -0.012195 0.0222007
                      }
                    }
                  }
                }
                JOINT lCarpal1
                {
                  OFFSET 0.9571 1.114 1.7695
                  CHANNELS 6 Xposition Yposition Zposition Zrotation Xrotation Yrotation
                  JOINT lIndex1
                  {
                    OFFSET 4.12461 0.486992 4.1451
                    CHANNELS 6 Xposition Yposition Zposition Zrotation Xrotation Yrotation
                    JOINT lIndex2
                    {
                      OFFSET 3.4052 -1.45401 2.7682
                      CHANNELS 6 Xposition Yposition Zposition Zrotation Xrotation Yrotation
                      JOINT lIndex2_End
                      {
                        OFFSET 1.45309 -1.79499 1.2713
                        CHANNELS 6 Xposition Yposition Zposition Zrotation Xrotation Yrotation
                        End Site
                        {
                          OFFSET 0.0144979 -0.0179083 0.0126995
                        }
                      }
                    }
                  }
                  JOINT lMid1
                  {
                    OFFSET 5.6954 0.209987 2.1184
                    CHANNELS 6 Xposition Yposition Zposition Zrotation Xrotation Yrotation
                    JOINT lMid2
                    {
                      OFFSET 3.9766 -1.53999 2.3863
                      CHANNELS 6 Xposition Yposition Zposition Zrotation Xrotation Yrotation
                      JOINT lMid2_End
                      {
                        OFFSET 1.4042 -1.926 1.125
                        CHANNELS 6 Xposition Yposition Zposition Zrotation Xrotation Yrotation
                        End Site
                        {
                          OFFSET 0.013999 -0.0193044 0.011301
                        }
                      }
                    }
                  }
                }
                JOINT lCarpal2
                {
                  OFFSET 2.0956 0.66 -0.3894
                  CHANNELS 6 Xposition Yposition Zposition Zrotation Xrotation Yrotation
                  JOINT lRing1
                  {
                    OFFSET 5.0395 -0.090013 2.4971
                    CHANNELS 6 Xposition Yposition Zposition Zrotation Xrotation Yrotation
                    JOINT lRing2
                    {
                      OFFSET 3.7921 -1.55199 1.4806
                      CHANNELS 6 Xposition Yposition Zposition Zrotation Xrotation Yrotation
                      JOINT lRing2_End
                      {
                        OFFSET 1.4655 -1.808 0.9609
                        CHANNELS 6 Xposition Yposition Zposition Zrotation Xrotation Yrotation
                        End Site
                        {
                          OFFSET 0.0147015 -0.0181014 0.00959957
                        }
                      }
                    }
                  }
                  JOINT lPinky1
                  {
                    OFFSET 4.9141 -1.269 0.3591
                    CHANNELS 6 Xposition Yposition Zposition Zrotation Xrotation Yrotation
                    JOINT lPinky2
                    {
                      OFFSET 3.1477 -1.685 0.8462
                      CHANNELS 6 Xposition Yposition Zposition Zrotation Xrotation Yrotation
                      JOINT lPinky2_End
                      {
                        OFFSET 0.805498 -1.58501 0.795499
                        CHANNELS 6 Xposition Yposition Zposition Zrotation Xrotation Yrotation
                        End Site
                        {
                          OFFSET 0.00809703 -0.0157944 0.00799848
                        }
                      }
                    }
                  }
                }
              }
            }
          }
        }
        JOINT rCollar
        {
          OFFSET -1.7069 20.075 5.0056
          CHANNELS 6 Xposition Yposition Zposition Zrotation Xrotation Yrotation
          JOINT rShldr
          {
            OFFSET -13.6458 -0.0470107 -4.849
            CHANNELS 6 Xposition Yposition Zposition Zrotation Xrotation Yrotation
            JOINT rForeArm
            {
              OFFSET -28.3255 -0.975895 2.2888
              CHANNELS 6 Xposition Yposition Zposition Zrotation Xrotation Yrotation
              JOINT rHand
              {
                OFFSET -22.1583 -0.530007 10.8316
                CHANNELS 6 Xposition Yposition Zposition Zrotation Xrotation Yrotation
                JOINT rThumb1
                {
                  OFFSET -0.785997 0.112005 2.5817
                  CHANNELS 6 Xposition Yposition Zposition Zrotation Xrotation Yrotation
                  JOINT rThumb2
                  {
                    OFFSET -0.360106 -0.877994 4.2331
                    CHANNELS 6 Xposition Yposition Zposition Zrotation Xrotation Yrotation
                    JOINT rThumb2_End
                    {
                      OFFSET -1.8127 -1.216 2.2227
                      CHANNELS 6 Xposition Yposition Zposition Zrotation Xrotation Yrotation
                      End Site
                      {
                        OFFSET -0.0180972 -0.0121973 0.0222005
                      }
                    }
                  }
                }
                JOINT rCarpal1
                {
                  OFFSET -0.9571 1.114 1.7695
                  CHANNELS 6 Xposition Yposition Zposition Zrotation Xrotation Yrotation
                  JOINT rIndex1
                  {
                    OFFSET -4.1246 0.487011 4.1451
                    CHANNELS 6 Xposition Yposition Zposition Zrotation Xrotation Yrotation
                    JOINT rIndex2
                    {
                      OFFSET -3.4052 -1.45401 2.7682
                      CHANNELS 6 Xposition Yposition Zposition Zrotation Xrotation Yrotation
                      JOINT rIndex2_End
                      {
                        OFFSET -1.4531 -1.795 1.2713
                        CHANNELS 6 Xposition Yposition Zposition Zrotation Xrotation Yrotation
                        End Site
                        {
                          OFFSET -0.0145077 -0.0180048 0.0127017
                        }
                      }
                    }
                  }
                  JOINT rMid1
                  {
                    OFFSET -5.6954 0.210002 2.1184
                    CHANNELS 6 Xposition Yposition Zposition Zrotation Xrotation Yrotation
                    JOINT rMid2
                    {
                      OFFSET -3.9766 -1.54 2.3863
                      CHANNELS 6 Xposition Yposition Zposition Zrotation Xrotation Yrotation
                      JOINT rMid2_End
                      {
                        OFFSET -1.4042 -1.926 1.125
                        CHANNELS 6 Xposition Yposition Zposition Zrotation Xrotation Yrotation
                        End Site
                        {
                          OFFSET -0.0139948 -0.0192916 0.0112994
                        }
                      }
                    }
                  }
                }
                JOINT rCarpal2
                {
                  OFFSET -2.0956 0.66 -0.3894
                  CHANNELS 6 Xposition Yposition Zposition Zrotation Xrotation Yrotation
                  JOINT rRing1
                  {
                    OFFSET -5.03951 -0.0899879 2.4971
                    CHANNELS 6 Xposition Yposition Zposition Zrotation Xrotation Yrotation
                    JOINT rRing2
                    {
                      OFFSET -3.7921 -1.55201 1.4806
                      CHANNELS 6 Xposition Yposition Zposition Zrotation Xrotation Yrotation
                      JOINT rRing2_End
                      {
                        OFFSET -1.4655 -1.808 0.960901
                        CHANNELS 6 Xposition Yposition Zposition Zrotation Xrotation Yrotation
                        End Site
                        {
                          OFFSET -0.0146934 -0.0180999 0.00959832
                        }
                      }
                    }
                  }
                  JOINT rPinky1
                  {
                    OFFSET -4.91411 -1.26899 0.359202
                    CHANNELS 6 Xposition Yposition Zposition Zrotation Xrotation Yrotation
                    JOINT rPinky2
                    {
                      OFFSET -3.14769 -1.68501 0.846199
                      CHANNELS 6 Xposition Yposition Zposition Zrotation Xrotation Yrotation
                      JOINT rPinky2_End
                      {
                        OFFSET -0.805498 -1.585 0.7955
                        CHANNELS 6 Xposition Yposition Zposition Zrotation Xrotation Yrotation
                        End Site
                        {
                          OFFSET -0.00810035 -0.0158035 0.00800029
                        }
                      }
                    }
                  }
                }
              }
            }
          }
        }
      }
    }
  }
  JOINT lThigh
  {
    OFFSET 8.367 -8.2066 0.5982
    CHANNELS 6 Xposition Yposition Zposition Zrotation Xrotation Yrotation
    JOINT lShin
    {
      OFFSET 2.1923 -43.463 -0.4932
      CHANNELS 6 Xposition Yposition Zposition Zrotation Xrotation Yrotation
      JOINT lFoot
      {
        OFFSET 0.733301 -45.8593 -2.6451
        CHANNELS 6 Xposition Yposition Zposition Zrotation Xrotation Yrotation
        End Site
        {
          OFFSET 2.6618 -4.2699 12.3931
        }
      }
    }
  }
  JOINT rThigh
  {
    OFFSET -8.367 -8.2066 0.5982
    CHANNELS 6 Xposition Yposition Zposition Zrotation Xrotation Yrotation
    JOINT rShin
    {
      OFFSET -2.1923 -43.463 -0.4931
      CHANNELS 6 Xposition Yposition Zposition Zrotation Xrotation Yrotation
      JOINT rFoot
      {
        OFFSET -0.733299 -45.8593 -2.6451
        CHANNELS 6 Xposition Yposition Zposition Zrotation Xrotation Yrotation
        End Site
        {
          OFFSET -2.6618 -4.2699 12.3931
        }
      }
    }
  }
}
MOTION
Frames:	4
Frame Time:	0.0333333
495.728 103.08 -87.4492 -4.97557 2.78847 -82.219 1.53262e-006 -1.18599 -1.50181 0.821438 1.21769 -1.01673 1.57225e-006 9.96399 0.213401 1.66492 2.42048 -2.05147 4.08022e-006 13.134 -3.25731 1.66492 2.42048 -2.05147 2.05187e-006 20.686 -1.69049 -0.104839 0.151342 -2.68065 -3.48252e-007 7.23801 -0.123702 3.90018 1.27882 0.0168396 1.7069 20.075 5.0056 5.58614 0.348077 4.00314 13.6458 -0.0470154 -4.849 -85.5014 -0.0693857 19.7032 28.3255 -0.975896 2.28879 -18.4701 -35.8382 -10.0194 22.1583 -0.529992 10.8316 -9.32798 0.886184 16.2877 0.786003 0.112 2.5817 4.87366 2.93213 12.9798 0.360092 -0.878005 4.2331 -3.74098 -0.224257 -6.83499 1.8127 -1.21601 2.22271 -0.132514 -0.0153893 -0.24271 0.9571 1.114 1.7695 1.59028e-015 3.18055e-015 -1.59028e-015 4.12461 0.486995 4.1451 -0.33564 5.53289 7.05147 3.40521 -1.454 2.76819 6.34559 -2.98049 -2.45798 1.4531 -1.79499 1.2713 1.12803 -0.505398 -0.457249 5.6954 0.209976 2.11841 3.94158 1.32856 -0.617843 3.9766 -1.53999 2.3863 2.54442 -1.28233 -1.03405 1.4042 -1.926 1.125 3.43173 -1.7425 -1.38363 2.0956 0.66 -0.3894 1.59028e-015 3.18055e-015 -1.59028e-015 5.0395 -0.090023 2.49711 4.19899 -2.89738 -1.91274 3.79209 -1.552 1.48061 2.77482 -1.51938 -1.28941 1.4655 -1.80799 0.960893 3.64949 -2.01464 -1.68387 4.9141 -1.269 0.359099 3.20794 -3.40388 -2.51362 3.1477 -1.68501 0.846205 4.74645 -2.82807 -2.12994 0.805503 -1.58501 0.795498 3.35977 -1.97753 -1.52698 -1.7069 20.075 5.00559 -2.87426 -0.206534 -5.70299 -13.6458 -0.0470052 -4.84899 78.5198 7.12981 -14.3014 -28.3255 -0.975899 2.2888 15.6957 -34.8378 13.718 -22.1583 -0.530015 10.8316 11.1561 14.924 -7.01047 -0.786 0.112006 2.5817 -2.52681 6.33974 -15.7163 -0.360108 -0.877991 4.2331 1.48939 -1.19348 4.39937 -1.8127 -1.216 2.22271 -0.808008 0.731109 -2.49711 -0.9571 1.114 1.7695 3.18055e-015 -3.18055e-015 -5.96354e-016 -4.1246 0.487014 4.1451 7.68522 7.59701 -7.35377 -3.4052 -1.45401 2.76821 -1.75057 -0.584887 0.229015 -1.4531 -1.795 1.2713 4.05344 1.32959 -0.615426 -5.6954 0.209998 2.1184 1.4185 3.6865 -0.742787 -3.9766 -1.54 2.38631 2.40639 0.897773 -0.349248 -1.4042 -1.926 1.12499 1.40929 0.527663 -0.200096 -2.0956 0.66 -0.3894 3.18055e-015 -3.18055e-015 -5.96354e-016 -5.03951 -0.089989 2.49711 0.312006 -0.38957 -0.160038 -3.7921 -1.55201 1.48058 2.0021 0.823648 -0.375376 -1.4655 -1.808 0.960888 1.00772 0.416542 -0.18535 -4.91411 -1.26898 0.359191 1.04901 -0.939389 0.611469 -3.1477 -1.685 0.846191 -0.304633 -0.1362 0.0508571 -0.805495 -1.585 0.795511 1.28006 0.56821 -0.221237 8.367 -8.20659 0.598204 -0.336626 -2.01297 -7.1992 2.1923 -43.463 -0.493203 -0.066174 14.7254 0.342318 0.733302 -45.8593 -2.6451 2.95699 -7.73981 -4.82604 -8.367 -8.20659 0.598204 4.45734 5.65058 10.0097 -2.19226 -43.463 -0.493304 0.345886 3.45146 -0.603492 -0.733303 -45.8593 -2.6451 1.62607 -5.30136 -8.1407 
495.497 103.066 -87.0813 -5.04308 2.68716 -82.0123 2.85753e-006 -1.18599 -1.50181 0.81568 1.20724 -1.01986 -6.62953e-007 9.964 0.213403 1.65328 2.39966 -2.05738 8.9143e-007 13.134 -3.2573 1.65328 2.39966 -2.05739 6.37831e-007 20.686 -1.69049 -0.107843 0.49388 -2.74297 -3.02703e-006 7.23801 -0.123707 3.71695 1.22476 -0.220289 1.7069 20.075 5.00561 5.30729 0.393518 4.18879 13.6458 -0.0470152 -4.84902 -85.4823 0.367477 19.9135 28.3255 -0.975905 2.28881 -18.5412 -36.3924 -9.95201 22.1583 -0.529986 10.8316 -9.55442 0.62661 16.3978 0.785999 0.111987 2.58171 4.85799 2.90504 13.1119 0.360092 -0.878008 4.23311 -3.73815 -0.22426 -6.82984 1.8127 -1.21602 2.22271 -0.116 -0.013513 -0.212527 0.9571 1.114 1.7695 -8.82781e-032 3.18055e-015 1.59028e-015 4.1246 0.486987 4.14511 -0.386537 5.53773 7.12059 3.4052 -1.454 2.7682 6.34246 -2.97895 -2.45686 1.4531 -1.795 1.27131 1.11053 -0.497504 -0.450241 5.69541 0.209991 2.1184 3.85222 1.40491 -0.602218 3.9766 -1.53999 2.3863 2.52769 -1.27374 -1.02742 1.40419 -1.92601 1.12501 3.3758 -1.7133 -1.36211 2.0956 0.66 -0.3894 -8.82781e-032 3.18055e-015 1.59028e-015 5.0395 -0.090021 2.49711 4.07283 -2.84427 -1.93856 3.7921 -1.55199 1.4806 2.75054 -1.50577 -1.2784 1.4655 -1.808 0.960897 3.58312 -1.97689 -1.65451 4.9141 -1.26901 0.35911 3.06555 -3.37311 -2.58337 3.1477 -1.68501 0.846203 4.70908 -2.80088 -2.11147 0.805492 -1.58502 0.795506 3.30338 -1.9435 -1.50247 -1.7069 20.075 5.00559 -3.15429 -0.236706 -5.52679 -13.6458 -0.0470128 -4.84899 78.5392 7.95405 -14.2958 -28.3255 -0.975886 2.28881 15.9215 -33.4995 14.7492 -22.1583 -0.530009 10.8316 11.1658 15.1167 -7.39424 -0.786005 0.112004 2.5817 -2.48303 6.32604 -15.849 -0.360105 -0.877993 4.23311 1.48749 -1.19206 4.39392 -1.8127 -1.216 2.22269 -0.817994 0.740576 -2.52861 -0.9571 1.114 1.7695 -1.59028e-015 -6.36111e-015 -1.98785e-016 -4.12461 0.48701 4.14511 7.74945 7.59933 -7.41369 -3.40519 -1.45401 2.76821 -1.74558 -0.58447 0.23106 -1.45309 -1.795 1.27131 4.0728 1.3358 -0.618647 -5.6954 0.210007 2.11839 1.51666 3.75152 -0.73648 -3.9766 -1.54 2.38631 2.42327 0.904025 -0.351857 -1.4042 -1.926 1.12501 1.46342 0.548023 -0.208053 -2.0956 0.66 -0.3894 -1.59028e-015 -6.36111e-015 -1.98785e-016 -5.03951 -0.0899889 2.49709 0.437076 -0.358211 -0.105685 -3.79209 -1.55201 1.4806 2.034 0.836729 -0.38159 -1.4655 -1.808 0.960893 1.07311 0.443609 -0.197588 -4.91411 -1.26899 0.359204 1.17696 -0.933313 0.705833 -3.1477 -1.685 0.846192 -0.257351 -0.114988 0.0430368 -0.805503 -1.58499 0.795489 1.33568 0.592939 -0.231106 8.367 -8.20659 0.598187 -0.702813 -1.67747 -7.64857 2.1923 -43.463 -0.493211 -0.0607381 14.5814 0.360341 0.733303 -45.8593 -2.6451 3.21957 -7.79807 -4.47792 -8.367 -8.2066 0.598211 4.19591 6.09691 10.5423 -2.19319 -43.463 -0.488777 0.328735 3.23744 -0.581807 -0.733305 -45.8593 -2.64509 1.73715 -5.52305 -8.92239 
495.244 103.043 -86.6646 -5.18628 2.55318 -81.7491 -3.65481e-006 -1.186 -1.50179 0.811034 1.2322 -1.03446 -3.92869e-006 9.96399 0.213408 1.64474 2.44944 -2.08734 -2.91938e-006 13.134 -3.25729 1.64474 2.44944 -2.08732 3.0031e-006 20.686 -1.69049 -0.111504 0.67849 -2.82984 -3.4863e-006 7.238 -0.123702 3.57725 1.29032 -0.434508 1.7069 20.075 5.00559 4.92621 0.444965 4.34246 13.6458 -0.0470146 -4.849 -85.1696 0.892642 19.8034 28.3255 -0.975897 2.2888 -18.6359 -37.0549 -9.88788 22.1583 -0.529983 10.8316 -9.81851 -0.074704 16.4551 0.786009 0.112007 2.5817 4.84479 2.88173 13.2251 0.360094 -0.878003 4.2331 -3.73532 -0.22427 -6.82467 1.8127 -1.21601 2.22269 -0.0995214 -0.0116038 -0.182354 0.9571 1.114 1.7695 1.59028e-015 9.54166e-015 -0 4.1246 0.48699 4.1451 -0.421903 5.54164 7.17603 3.4052 -1.454 2.7682 6.33932 -2.97743 -2.45572 1.4531 -1.79499 1.27129 1.09303 -0.489596 -0.443232 5.6954 0.209978 2.11841 3.78694 1.46472 -0.594088 3.97659 -1.54 2.38631 2.51094 -1.26511 -1.02078 1.4042 -1.92599 1.12499 3.341 -1.69517 -1.34843 2.0956 0.66 -0.3894 1.59028e-015 9.54166e-015 -0 5.0395 -0.0900211 2.49711 3.97538 -2.80693 -1.96539 3.7921 -1.55198 1.48059 2.72626 -1.49214 -1.2674 1.46551 -1.80799 0.960896 3.53441 -1.94929 -1.63238 4.91411 -1.26899 0.359097 2.95202 -3.35551 -2.64688 3.1477 -1.685 0.846195 4.67171 -2.77368 -2.09298 0.805503 -1.585 0.795495 3.26833 -1.9223 -1.48692 -1.7069 20.075 5.0056 -3.46178 -0.270316 -5.22229 -13.6458 -0.0470093 -4.84901 78.4725 8.71047 -14.3911 -28.3255 -0.975897 2.2888 16.392 -32.7522 16.231 -22.1583 -0.530016 10.8316 11.0549 15.4457 -7.50172 -0.786 0.112001 2.5817 -2.44758 6.31809 -15.9617 -0.360108 -0.87799 4.23309 1.48559 -1.19064 4.38842 -1.81269 -1.216 2.22271 -0.827971 0.750058 -2.56007 -0.9571 1.114 1.7695 -7.95139e-016 -3.18055e-015 -1.98785e-016 -4.12461 0.487015 4.14509 7.79576 7.602 -7.46277 -3.4052 -1.45401 2.76821 -1.74058 -0.584034 0.233073 -1.4531 -1.795 1.27131 4.09216 1.342 -0.621851 -5.6954 0.21 2.1184 1.58798 3.80301 -0.728251 -3.9766 -1.54 2.38629 2.44019 0.910248 -0.354474 -1.4042 -1.926 1.12501 1.51758 0.568347 -0.215996 -2.0956 0.66 -0.3894 -7.95139e-016 -3.18055e-015 -1.98785e-016 -5.03951 -0.0899852 2.49711 0.531806 -0.33813 -0.0570795 -3.7921 -1.55201 1.48061 2.06594 0.849806 -0.387819 -1.4655 -1.808 0.960905 1.13851 0.47066 -0.209874 -4.91411 -1.26899 0.359208 1.27641 -0.935699 0.788014 -3.14769 -1.68501 0.846207 -0.210074 -0.093767 0.0351762 -0.805502 -1.58499 0.795488 1.39132 0.61764 -0.240987 8.367 -8.20659 0.598205 -1.1232 -1.23316 -8.17101 2.1923 -43.4631 -0.493179 -0.0552151 14.4377 0.379192 0.7333 -45.8593 -2.64511 3.51887 -7.87316 -4.11286 -8.367 -8.20659 0.5982 3.89555 6.58536 11.0001 -2.19113 -43.463 -0.498689 0.321269 3.09987 -0.563596 -0.733295 -45.8593 -2.6451 1.86469 -5.78815 -9.5845 
494.972 103.016 -86.1851 -5.43118 2.33643 -81.502 -1.61191e-006 -1.186 -1.5018 0.792211 1.25266 -1.08372 5.01452e-006 9.96399 0.213386 1.60855 2.48998 -2.18573 -2.22402e-006 13.134 -3.25729 1.60855 2.48998 -2.18576 1.37363e-006 20.686 -1.69051 -0.109798 1.11291 -2.77158 3.21356e-006 7.238 -0.123713 3.48485 1.38872 -0.58469 1.7069 20.075 5.00559 4.29786 0.471549 4.49778 13.6458 -0.0470138 -4.84901 -84.4958 1.67827 19.7185 28.3255 -0.975902 2.2888 -18.8255 -37.7634 -9.999 22.1583 -0.529984 10.8316 -9.79734 -0.755627 16.4112 0.786004 0.111998 2.5817 4.83706 2.86779 13.3196 0.360093 -0.878011 4.23311 -3.73249 -0.224275 -6.8195 1.81269 -1.21602 2.22271 -0.0830211 -0.00970764 -0.152175 0.9571 1.114 1.7695 -1.59028e-015 6.36111e-015 -6.36111e-015 4.1246 0.486993 4.1451 -0.439116 5.54461 7.21442 3.4052 -1.45401 2.7682 6.3362 -2.97589 -2.45459 1.4531 -1.795 1.2713 1.0755 -0.481699 -0.436237 5.6954 0.209995 2.1184 3.74213 1.51038 -0.59208 3.9766 -1.53999 2.3863 2.49418 -1.25651 -1.01416 1.40419 -1.92601 1.125 3.30623 -1.67706 -1.33472 2.0956 0.66 -0.3894 -1.59028e-015 6.36111e-015 -6.36111e-015 5.0395 -0.090016 2.4971 3.9027 -2.78263 -1.99247 3.7921 -1.552 1.4806 2.70198 -1.47854 -1.25638 1.46551 -1.80799 0.960889 3.50659 -1.93341 -1.61999 4.9141 -1.26901 0.359107 2.86372 -3.34847 -2.70414 3.1477 -1.685 0.846199 4.65284 -2.76469 -2.08649 0.805493 -1.58501 0.795508 3.2333 -1.90109 -1.47134 -1.7069 20.075 5.0056 -3.85014 -0.312125 -4.8262 -13.6458 -0.0470129 -4.84902 78.3253 9.4799 -14.3644 -28.3255 -0.9759 2.28881 16.6413 -31.9859 17.1461 -22.1583 -0.530005 10.8316 11.1325 14.6443 -6.53979 -0.786003 0.112004 2.58169 -2.41907 6.31425 -16.0565 -0.360104 -0.877997 4.2331 1.48367 -1.18922 4.38294 -1.81269 -1.216 2.2227 -0.837926 0.75953 -2.59154 -0.9571 1.114 1.7695 7.95139e-016 -1.59028e-015 -1.49089e-015 -4.12461 0.487013 4.1451 7.82093 7.6048 -7.49807 -3.4052 -1.454 2.76819 -1.73559 -0.583593 0.235109 -1.4531 -1.795 1.27131 4.1115 1.34822 -0.625081 -5.6954 0.210002 2.11841 1.63675 3.84252 -0.718681 -3.9766 -1.53999 2.38629 2.45708 0.916491 -0.357096 -1.4042 -1.92599 1.12501 1.53892 0.576311 -0.219005 -2.0956 0.66 -0.3894 7.95139e-016 -1.59028e-015 -1.49089e-015 -5.0395 -0.0899913 2.49711 0.600772 -0.327528 -0.0140814 -3.7921 -1.552 1.4806 2.07852 0.854918 -0.390202 -1.4655 -1.808 0.960896 1.17014 0.483494 -0.216205 -4.9141 -1.26899 0.359199 1.35138 -0.944875 0.858798 -3.1477 -1.68501 0.846204 -0.191456 -0.08545 0.0321199 -0.805502 -1.585 0.795512 1.41825 0.62937 -0.246138 8.367 -8.20659 0.598201 -1.63341 -0.569873 -8.63144 2.19229 -43.463 -0.493181 -0.0482007 14.1546 0.398168 0.733296 -45.8593 -2.64509 3.86558 -7.90547 -3.82162 -8.367 -8.2066 0.598212 3.48617 7.17561 11.3951 -2.18821 -43.463 -0.51228 0.323012 3.0181 -0.53886 -0.733297 -45.8593 -2.6451 2.02458 -6.10274 -10.1585 
